<svg xmlns="http://www.w3.org/2000/svg" xmlns:xlink="http://www.w3.org/1999/xlink" xmlns:lucid="lucid" width="1367" height="787"><g transform="translate(-311 -304)" lucid:page-tab-id="0_0"><path d="M872.83 692.9c0-4.42 3.6-8 8-8h144c4.42 0 8 3.58 8 8v64c0 4.4-3.58 8-8 8h-144c-4.4 0-8-3.6-8-8z" stroke="#000" stroke-opacity="0" stroke-width="2" fill="#bcbdbf"/><use xlink:href="#a" transform="matrix(1,0,0,1,877.8346567546859,689.8947691473403) translate(24.213225636984497 40.99571513002364)"/><path d="M1124.98 664.35l-8.24 12.45-6.06 8.36-5.08 6.42-4.5 5.2-4.1 4.4-3.84 3.75-3.62 3.26-3.47 2.87-3.36 2.54-3.26 2.3-3.2 2.02-3.16 1.83-3.13 1.64-3.13 1.46-3.13 1.3-3.16 1.18-3.18 1.04-3.23.9-3.3.77-3.36.64-3.47.5-3.58.38-2.27.14-.63-9.98 2.07-.13 3.15-.32 3.05-.45 2.96-.56 2.88-.68 2.83-.8 2.78-.9 2.76-1.03 2.75-1.15 2.75-1.3 2.76-1.44 2.8-1.6 2.85-1.82 2.93-2.04 3.02-2.3 3.15-2.6 3.32-2.98 3.53-3.46 3.82-4.07 4.22-4.9 4.8-6.08 5.82-8 8.04-12.16 19.53-31.54h11.75zm98.15-110.7l-.53.15-3.26 1.06-3.22 1.2-3.2 1.34-3.17 1.5-3.18 1.66-3.2 1.85-3.25 2.07-3.3 2.3-3.4 2.58-3.53 2.9-3.7 3.33-3.88 3.8-4.17 4.46-4.58 5.3-5.16 6.54-4.5 6.2h-12l2.08-3.34 6.45-8.9 5.43-6.86 4.85-5.63 4.47-4.75 4.2-4.1 4-3.6 3.83-3.2 3.73-2.82 3.66-2.54 3.58-2.3 3.57-2.05 3.55-1.86 3.56-1.68 3.57-1.5 3.62-1.35 3.66-1.18.74-.2z" fill="#ff9e56"/><path d="M1038.07 729.8l-5.24.1v-10l5.03-.1zM1227.2 543.1l-.58 4.45.58 4.45.2.5-4.58 1.13-2.37-9.7 7.14-1.76z" fill="#ff9e56"/><use xlink:href="#b" transform="matrix(1,0,0,1,1122.7214639068086,601.8878910160834) translate(0 17.02127659574468)"/><path d="M1218.2 867.9l8.37 9.73 7.08 7.55 6.3 6.17 5.8 5.2 5.42 4.5 5.18 3.94 5 3.47 4.86 3.1 4.8 2.75 4.74 2.48 4.74 2.23 4.74 2 4.8 1.78 4.87 1.6 4.97 1.38 5.12 1.2 5.27 1 5.5.82 5.73.6 6.03.38 1.5.03-.22 10-1.7-.02-6.44-.4-6.15-.65-5.9-.88-5.7-1.08-5.52-1.3-5.38-1.5-5.27-1.7-5.2-1.94-5.12-2.16-5.1-2.4-5.12-2.68-5.15-3-5.22-3.3-5.33-3.72-5.5-4.18-5.77-4.77-6.1-5.5-6.6-6.46-7.37-7.86-8.74-10.14-5.35-7.18h12.46zm-178.57-147.87l6.45.4 6.16.66 5.9.86 5.7 1.08 5.52 1.3 5.4 1.5 5.26 1.7 5.2 1.94 5.12 2.16 5.1 2.4 5.12 2.68 5.16 2.98 5.22 3.3 5.34 3.73 5.5 4.18 5.77 4.78 6.1 5.5 6.6 6.46 7.36 7.86 8.7 10.1 11.76 14.88 30.47 40.97h-12.46l-25.94-34.9-11.53-14.6-8.43-9.76-7.08-7.56-6.3-6.18-5.8-5.2-5.42-4.5-5.18-3.94-5-3.48-4.87-3.1-4.8-2.75-4.73-2.5-4.73-2.22-4.75-2-4.8-1.78-4.87-1.58-4.97-1.4-5.12-1.2-5.28-1-5.5-.8-5.73-.6-6.03-.4-1.5-.02.22-10z" fill="#ffbd50"/><path d="M1038.07 720l-.2 10-5.04-.1v-10zM1334.72 929.92l-.22.55-.6 4.45.6 4.45.22.55h-5.94v-10z" fill="#ffbd50"/><use xlink:href="#c" transform="matrix(1,0,0,1,1174.0691263018873,841.4480088380844) translate(0 17.02127659574468)"/><path d="M1513.14 937.92h-141.92v-6h141.92zm107.03 0h-61.2v-6h61.2z" fill="#ffbd50"/><path d="M1371.3 937.92h-3.48l.4-3-.4-3h3.48zM1623.17 934.92l.4 3h-3.47v-6h3.47z" fill="#ffbd50"/><use xlink:href="#d" transform="matrix(1,0,0,1,1513.1395691935054,924.987926811973) translate(0.004999999999999005 13.238770685579198)"/><path d="M1468 1009.9l3.9 4.17 3.4 3.34 3.12 2.82 2.9 2.4 2.77 2.1 2.64 1.85 2.6 1.64 2.53 1.47 2.5 1.32 2.52 1.17 2.5 1.06 2.56.95 2.6.84 2.63.74 2.72.64 2.82.53 2.93.44 3.07.32 3.23.2h.5l-.13 6h-.62l-3.48-.23-3.32-.35-3.18-.47-3.07-.58-2.97-.7-2.9-.8-2.82-.93-2.78-1.03-2.75-1.15-2.74-1.3-2.72-1.42-2.76-1.6-2.8-1.77-2.86-2-2.96-2.24-3.1-2.56-3.3-2.97-3.6-3.54-4.07-4.34-5-5.8-.6-.8h7.82zm-96.1-77.9l3.48.2 3.32.36 3.18.47 3.07.58 2.97.7 2.9.82 2.8.92 2.8 1.03 2.75 1.16 2.73 1.3 2.74 1.42 2.76 1.6 2.8 1.77 2.86 2 2.96 2.24 3.1 2.56 3.3 2.97 3.6 3.52 4.07 4.34 4.96 5.78 7.66 9.72 7.6 10h-7.53l-4.82-6.33-7.55-9.58-4.8-5.57-3.9-4.17-3.42-3.33-3.1-2.8-2.9-2.4-2.77-2.1-2.65-1.86-2.6-1.63-2.53-1.46-2.52-1.3-2.5-1.2-2.52-1.05-2.54-.95-2.6-.84-2.64-.74-2.72-.64-2.82-.53-2.93-.44-3.07-.3-3.24-.2-.5-.02.14-6z" fill="#ffbd50"/><path d="M1371.36 931.98l-.13 6-3.4-.07.38-2.98-.38-3zM1525.8 1037.96l-.4 3 .4 3h-3.47v-6z" fill="#ffbd50"/><use xlink:href="#e" transform="matrix(1,0,0,1,1432.565575832843,987.447322005361) translate(0.004999999999999005 13.238770685579198)"/><path d="M585.3 419.48l13.67 13.46 8.6 7.77 7.1 5.88 6.3 4.8 5.84 4.06 5.58 3.53 5.4 3.12 5.3 2.76 5.28 2.48 5.3 2.23 5.37 2 5.5 1.8 5.65 1.56 5.86 1.38 6.13 1.18 6.45.95 6.83.7 7.3.47 4.92.1-.12 6-5.05-.1-7.55-.47-7.1-.75-6.68-1-6.38-1.2-6.1-1.43-5.9-1.65-5.74-1.86-5.6-2.1-5.54-2.3-5.5-2.6-5.54-2.9-5.6-3.24-5.8-3.67-6.04-4.2-6.5-4.95-7.3-6.03-8.8-7.94-13.8-13.58-32.42-32.9h8.42zm-141.42-82.53l7.55.48 7.1.74 6.68 1 6.4 1.2 6.1 1.44 5.9 1.65 5.72 1.86 5.6 2.1 5.55 2.33 5.5 2.6 5.53 2.88 5.6 3.25 5.8 3.67 6.05 4.2 6.1 4.65h-9.94l-5.53-3.85-5.57-3.54-5.4-3.1-5.3-2.8-5.28-2.47-5.3-2.22-5.37-2-5.5-1.78-5.64-1.58-5.86-1.38-6.13-1.16-6.43-.95-6.84-.72-7.3-.45-4.92-.1.13-6z" fill="#eb6b6b"/><path d="M711 479.77l-.4 3 .4 3-3.53-.07.13-6zM438.85 336.8v6h-3.47l.4-3-.4-3z" fill="#eb6b6b"/><use xlink:href="#d" transform="matrix(1,0,0,1,519.3265202242803,370.9735526578178) translate(0.004999999999999005 13.238770685579198)"/><path d="M600.83 473.63l30.35 3.2 32.62 2.03 43.87.85-.12 6-44-.84-32.88-2.04-30.53-3.23-42.42-5.38v-6.05zm-118-12.8l31.77 1.96v6l-32-2-43.9-.83.13-6z" fill="#eb6b6b"/><path d="M711 479.77l-.4 3 .4 3-3.52-.06.1-6zM438.85 459.9v6h-3.47l.4-3-.4-3z" fill="#eb6b6b"/><use xlink:href="#e" transform="matrix(1,0,0,1,514.5978992390865,458.5386066407706) translate(0.004999999999999005 13.238770685579198)"/><path d="M559.02 568.36l-5.6 3.55-5.3 3.08-5.18 2.7-5.12 2.42-5.12 2.15-5.2 1.93-5.3 1.72-5.46 1.53-5.7 1.33-5.95 1.14-6.32.93-6.72.7-7.22.46-4.78.1-.13-6 4.66-.1 6.96-.45 6.47-.67 6.06-.9 5.7-1.1 5.45-1.26 5.23-1.46 5.06-1.65 4.95-1.83 4.88-2.06 4.9-2.3 4.94-2.57 5.1-2.95 2.65-1.7h10.75zm148.65-82.53l-4.64.1-6.98.43-6.47.68-6.06.9-5.72 1.08-5.44 1.28-5.23 1.46-5.06 1.64-4.95 1.84-4.9 2.06-4.88 2.3-4.95 2.6-5.1 2.94-5.38 3.4-5.87 4.1-6.77 5.14-9.06 7.5-22.68 19.96h-9.1l27.9-24.5 9.2-7.66 6.98-5.3 6.07-4.23 5.58-3.55 5.32-3.07 5.17-2.7 5.12-2.4 5.1-2.17 5.2-1.92 5.3-1.73 5.47-1.5 5.7-1.35 5.95-1.13 6.3-.93 6.73-.72 7.23-.45 4.77-.1z" fill="#eb6b6b"/><path d="M710.6 482.77l.4 3-3.4.06-.13-6 3.54-.07zM480.07 592.15h-3.47l.4-3-.4-3h3.47z" fill="#eb6b6b"/><use xlink:href="#f" transform="matrix(1,0,0,1,529.9625377191891,545.2359385551053) translate(0 13.238770685579198)"/><path d="M744.2 824.96l-6.57 7-5.53 5.43-4.97 4.47-4.6 3.82-4.4 3.32-4.22 2.93-4.1 2.62-4.05 2.34-4.02 2.1-4.02 1.9-4.03 1.7-4.1 1.52-4.16 1.35-4.25 1.2-4.38 1.02-4.54.86-4.72.7-4.93.5-5.2.34h-.4l-.22-10h.2l4.78-.3 4.52-.47 4.3-.64 4.14-.8 3.97-.93 3.85-1.07 3.77-1.23 3.7-1.37 3.64-1.54 3.64-1.7 3.65-1.92 3.7-2.13 3.75-2.38 3.87-2.7 4.05-3.06 4.3-3.56 4.65-4.2 5.23-5.12 6.2-6.6 8.68-10.68h12.9zM867.94 730h-.2l-4.78.3-4.52.48-4.3.63-4.13.8-3.97.93-3.86 1.08-3.77 1.23-3.7 1.38-3.65 1.54-3.64 1.72-3.64 1.9-3.68 2.13-3.76 2.38-3.88 2.7-4.05 3.07-4.3 3.55-4.66 4.2-5.22 5.13-6.24 6.65-8.68 10.1-.24.3h-12.9l5.47-6.73 8.9-10.35 6.53-6.96 5.53-5.42 4.96-4.48 4.62-3.83 4.38-3.3 4.22-2.95 4.1-2.6 4.06-2.35 4.02-2.1 4.02-1.9 4.04-1.7 4.1-1.5 4.16-1.37 4.26-1.2 4.4-1.02 4.53-.85 4.72-.7 4.93-.52 5.2-.32h.4z" fill="#3fb8b9"/><path d="M872.83 729.9l-5.02.1-.2-10 5.23-.1zM657 870.2h-5.95l.23-.54.58-4.45-.58-4.44-.23-.55H657z" fill="#3fb8b9"/><use xlink:href="#g" transform="matrix(1,0,0,1,709.1048443370789,782.1730240051071) translate(0 17.02127659574468)"/><path d="M615.4 868.87l-1.9.5-5.73 1.2-6.82 1.17-8.3 1.06-10.38.88-13.4.57h-18.42l-28.9-1.22-45.6-3.33v-6l45.93 3.34 28.7 1.22h18.15l13.16-.57 10.1-.87 8.06-1.02 6.58-1.1 5.48-1.18 1.78-.46zm-206.12-10.05l20.85 1.52v6l-21.07-1.52H398.6l-6.9.3-4.92.4-3.67.47-2.82.47-2.25.48-1.2.3-1.5-5.8 1.32-.34 2.5-.52 3.08-.53 3.92-.5 5.16-.43 7.16-.3z" fill="#3fb8b9"/><path d="M617.56 865.2l.4 3-2.64.7-1.5-5.82L618 862zM377.1 867.08l-4.32 1.44.43-3.3-.38-3.04 2.36-.8z" fill="#3fb8b9"/><use xlink:href="#d" transform="matrix(1,0,0,1,430.1303731532254,855.0919350667396) translate(0 13.238770685579198)"/><path d="M476.48 964.64L466 971.17l-10.74 6-12.2 6.05-14.92 6.5-19.44 7.38-.4.13-1.97-5.66.3-.1 19.25-7.3 14.64-6.4 11.95-5.9 10.5-5.87 10.16-6.34 22-15.94h10.2zm139.3-95.57l-6.9 2.56-9.14 3.87-8.76 4.2-8.52 4.56-8.44 5.03-8.6 5.67-9.22 6.7-11.22 9-15.47 13.2h-9.23l20.88-17.83 11.4-9.14 9.45-6.86 8.83-5.83 8.68-5.16 8.77-4.7 9-4.3 9.4-4 7.03-2.6z" fill="#3fb8b9"/><path d="M617.56 865.2l.4 3.06-2.25.84-2.07-5.63 4.37-1.62zM408.4 997.2l-4.34 1.52.43-3.33-.4-3.05 2.3-.8z" fill="#3fb8b9"/><use xlink:href="#e" transform="matrix(1,0,0,1,491.70035058193946,923.8584267836275) translate(0 13.238770685579198)"/><path d="M829.58 658.63l4.84 13.96 3.72 9.43 3.06 6.9 2.62 5.28 2.28 4.17 2.03 3.35 1.82 2.74 1.65 2.28 1.5 1.9 1.4 1.63 1.3 1.38 1.2 1.18 1.15 1.03 1.07.88 1.02.78.97.67.94.58.9.52.87.46.85.4.83.34.8.3.8.26.8.22.8.2h.1l-.37 1.6-1.57 8.22-.24-.05-1.2-.28-1.2-.33-1.2-.4-1.2-.44-1.22-.5-1.22-.6-1.24-.63-1.26-.73-1.3-.82-1.3-.9-1.36-1.04-1.4-1.16-1.44-1.3-1.5-1.48-1.6-1.7-1.66-1.92-1.77-2.24-1.9-2.62-2.05-3.1-2.25-3.7-2.48-4.52-2.8-5.66-3.23-7.28-3.88-9.83-5-14.46-17.28-62.07h10.38zM751.06 478.4l1.2.3 1.2.32 1.2.4 1.2.44 1.2.5 1.24.6 1.23.63 1.26.72 1.28.82 1.32.9 1.35 1.04 1.4 1.16 1.44 1.3 1.5 1.48 1.58 1.7 1.67 1.92 1.77 2.24 1.9 2.62 2.06 3.1 2.24 3.7 2.48 4.52 2.8 5.66 3.24 7.28 3.88 9.83 5 14.4 7.92 26.58.4 1.42h-10.4l-7.45-24.92-4.86-14-3.73-9.45-3.05-6.9-2.62-5.28-2.28-4.16-2.02-3.36-1.82-2.74-1.65-2.28-1.5-1.9-1.4-1.62-1.3-1.38-1.2-1.2-1.14-1-1.07-.9-1.02-.78-.96-.67-.93-.6-.9-.5-.85-.47-.85-.4-.82-.34-.8-.3-.8-.26-.8-.22-.8-.2h-.1l.38-1.64 1.56-8.18z" fill="#eb6b6b"/><path d="M750.15 477.87l-.2 10-5.84-.12.23-.53.6-4.45-.6-4.45-.23-.57zM872.83 719.9v10h-5.12v-10z" fill="#eb6b6b"/><use xlink:href="#h" transform="matrix(1,0,0,1,776.682910690114,574.0025754666168) translate(0.004999999999999005 17.02127659574468)"/><path d="M1419.7 905.08l-4.42 6.04-3.35 4.18-2.86 3.26-2.56 2.68-2.36 2.27-2.23 1.97-2.13 1.7-2.06 1.52-2 1.34-2 1.2-1.95 1.08-1.96.96-1.97.87-1.97.76-2 .7-2.03.58-2.08.5-2.14.44-2.2.34-2.28.25-1.7.12-.4-6 1.57-.1 2.02-.2 1.95-.3 1.88-.4 1.83-.43 1.78-.53 1.75-.6 1.74-.67 1.72-.76 1.72-.84 1.73-.95 1.77-1.07 1.8-1.2 1.85-1.36 1.93-1.55 2.04-1.8 2.16-2.07 2.4-2.5 2.67-3.05 3.18-3.98 4.3-5.85 15.87-23.35h7.25zm60.35-55.04l-1.58.1-2.03.23-1.95.3-1.9.37-1.8.45-1.8.5-1.74.6-1.73.67-1.72.76-1.7.85-1.75.95-1.75 1.07-1.8 1.2-.43.3h-9.5l.05-.03 2.24-1.96 2.13-1.7 2.06-1.52 2-1.35 2-1.2 1.95-1.08 1.97-.96 1.96-.87 1.97-.77 2-.68 2.03-.6 2.08-.5 2.15-.42 2.2-.34 2.3-.25 1.7-.1z" fill="#ffbd50"/><path d="M1371.36 937.85l-3.54.08.4-3-.4-3 3.4-.08zM1482.85 846.96l.4 3h-3.48v-6h3.47z" fill="#ffbd50"/><use xlink:href="#f" transform="matrix(1,0,0,1,1399.834465241252,858.4130489080861) translate(0 13.238770685579198)"/><path d="M743.4 482.77c0 8.63-7 15.63-15.63 15.63-8.64 0-15.64-7-15.64-15.63 0-8.64 7-15.64 15.64-15.64 8.63 0 15.63 7 15.63 15.64zM434.26 462.9c0 8.64-7 15.65-15.64 15.65s-15.64-7-15.64-15.64c0-8.63 7-15.63 15.64-15.63 8.63 0 15.64 7 15.64 15.64zM475.48 589.15c0 8.64-7 15.64-15.63 15.64-8.64 0-15.64-7-15.64-15.65 0-8.64 7-15.64 15.65-15.64 8.63 0 15.63 7 15.63 15.65zM434.26 339.8c0 8.62-7 15.63-15.64 15.63s-15.64-7-15.64-15.64c0-8.65 7-15.65 15.64-15.65 8.63 0 15.64 7 15.64 15.64z" stroke="#eb6b6b" stroke-width="3" fill="#eb6b6b"/><path d="M1259.4 547.55c0 8.64-7 15.64-15.63 15.64-8.64 0-15.64-7-15.64-15.65 0-8.63 7-15.64 15.64-15.64 8.63 0 15.64 7.02 15.64 15.65z" stroke="#ff9e56" stroke-width="3" fill="#ff9e56"/><path d="M1655.96 934.92c0 8.63-7 15.64-15.64 15.64-8.63 0-15.63-7-15.63-15.64s7-15.64 15.62-15.64c8.64 0 15.64 7 15.64 15.64zM1366.7 934.92c0 8.63-7 15.64-15.64 15.64-8.63 0-15.63-7-15.63-15.64s7-15.64 15.63-15.64c8.64 0 15.64 7 15.64 15.64zM1515.64 846.96c0 8.63-7 15.64-15.64 15.64s-15.64-7-15.64-15.64 7-15.64 15.64-15.64 15.64 7 15.64 15.64zM1558.2 1040.96c0 8.64-7 15.64-15.65 15.64-8.63 0-15.64-7-15.64-15.64 0-8.63 7.02-15.64 15.65-15.64 8.64 0 15.64 7 15.64 15.64z" stroke="#ffbd50" stroke-width="3" fill="#ffbd50"/><path d="M402.98 995.4c0 8.62-7 15.63-15.64 15.63s-15.64-7-15.64-15.64c0-8.65 7-15.65 15.64-15.65s15.64 7 15.64 15.64zM371.7 865.2c0 8.65-7 15.65-15.64 15.65-8.63 0-15.63-7-15.63-15.64 0-8.63 7-15.63 15.63-15.63 8.64 0 15.64 7 15.64 15.64zM650.35 865.2c0 8.65-7 15.65-15.64 15.65-8.63 0-15.63-7-15.63-15.64 0-8.63 7-15.63 15.64-15.63s15.65 7 15.65 15.64z" stroke="#3fb8b9" stroke-width="3" fill="#3fb8b9"/><path d="M1253.44 468.3l13.18 18.1 5.76 8.7 3.6 6 2.5 4.54 1.78 3.64 1.34 3 1 2.57.77 2.22.58 1.96.44 1.74.32 1.57.24 1.43.16 1.32.1 1.2.04 1.14v1.06l-.05 1-.07.95-.12.9-.13.86-.18.83-.22.8-.23.77-.27.74-.28.72-.32.7-.34.7-.38.66-.4.66-.43.64-.47.64-.5.63-.54.6-.58.63-.64.6-.68.62-.74.6-.8.62-.9.6-.96.62-1.06.6-1.2.6-1.3.63-1.5.6-1.68.63-1.92.62-1.72.47-1.6-5.78 1.6-.44 1.7-.54 1.44-.54 1.25-.53 1.1-.5.96-.5.84-.5.75-.46.66-.47.6-.45.56-.45.5-.45.44-.43.4-.44.4-.43.34-.43.3-.44.3-.44.28-.44.25-.45.23-.46.2-.48.2-.5.18-.5.17-.52.15-.56.12-.58.1-.6.1-.66.06-.7.03-.75v-.8l-.03-.9-.08-.96-.13-1.07-.2-1.18-.27-1.33-.38-1.5-.52-1.7-.68-2-.9-2.32-1.24-2.78-1.7-3.4-2.35-4.34-3.47-5.76-5.6-8.5-13.1-17.98-19.3-25.98h7.47zm1.78-125.22l-4.54.48-7.26 1.04-5.86 1.1-4.82 1.1-4 1.1-3.38 1.08-2.88 1.06-2.47 1.03-2.14 1-1.87.97-1.67.94-1.46.93-1.3.9-1.17.88-1.04.86-.95.85-.85.82-.78.83-.7.8-.66.83-.58.8-.55.83-.5.83-.46.83-.4.84-.4.86-.35.87-.32.9-.28.93-.25.96-.22 1-.18 1.05-.14 1.1-.1 1.16-.06 1.23v1.32l.05 1.4.13 1.54.2 1.66.3 1.8.42 2 .56 2.23.75 2.5 1 2.85 1.27 3.26 1.7 3.83 2.24 4.57 3.08 5.62 4.36 7.24 3.64 5.5h-7.2l-1.52-2.3-4.5-7.46-3.18-5.84-2.36-4.8-1.8-4.04-1.36-3.5-1.06-3.07-.82-2.74-.63-2.46-.47-2.25-.34-2.07-.23-1.9-.14-1.78-.06-1.66v-1.58l.07-1.5.12-1.4.17-1.35.22-1.3.26-1.24.32-1.2.35-1.17.4-1.14.45-1.1.5-1.1.52-1.06.58-1.05.63-1.03.7-1.02.74-1.02.8-1 .9-1.02.94-1 1.04-1 1.13-1.02 1.24-1.02 1.36-1.03 1.5-1.04 1.7-1.06 1.86-1.07 2.1-1.1 2.37-1.1 2.7-1.12 3.1-1.14 3.63-1.15 4.25-1.17 5.05-1.16 6.1-1.14 7.52-1.08 4.65-.48z" fill="#ff9e56"/><path d="M1264.6 549.8l-4.1.93.42-3.18-.4-3 2.73-.6zM1257.9 339.8l.38 2.96-3.14.33-.62-5.98 3.77-.4z" fill="#ff9e56"/><use xlink:href="#i" transform="matrix(1,0,0,1,1176.8962405744585,423.16745593672607) translate(0 15.13002364066194)"/><path d="M1290.68 339.8c0 8.62-7 15.63-15.64 15.63-8.63 0-15.63-7-15.63-15.64 0-8.65 7-15.65 15.64-15.65s15.64 7 15.64 15.64z" stroke="#ff9e56" stroke-width="3" fill="#ff9e56"/><path d="M1253.44 468.3l13.18 18.1 5.76 8.7 3.6 6 2.5 4.54 1.78 3.64 1.34 3 1 2.57.77 2.22.58 1.96.44 1.74.32 1.57.24 1.43.16 1.32.1 1.2.04 1.14v1.06l-.05 1-.07.95-.12.9-.13.86-.18.83-.22.8-.23.77-.27.74-.28.72-.32.7-.34.7-.38.66-.4.66-.43.64-.47.64-.5.63-.54.6-.58.63-.64.6-.68.62-.74.6-.8.62-.9.6-.96.62-1.06.6-1.2.6-1.3.63-1.5.6-1.68.63-1.92.62-1.72.47-1.6-5.78 1.6-.44 1.7-.54 1.44-.54 1.25-.53 1.1-.5.96-.5.84-.5.75-.46.66-.47.6-.45.56-.45.5-.45.44-.43.4-.44.4-.43.34-.43.3-.44.3-.44.28-.44.25-.45.23-.46.2-.48.2-.5.18-.5.17-.52.15-.56.12-.58.1-.6.1-.66.06-.7.03-.75v-.8l-.03-.9-.08-.96-.13-1.07-.2-1.18-.27-1.33-.38-1.5-.52-1.7-.68-2-.9-2.32-1.24-2.78-1.7-3.4-2.35-4.34-3.47-5.76-5.6-8.5-13.1-17.98-19.3-25.98h7.47zm1.78-125.22l-4.54.48-7.26 1.04-5.86 1.1-4.82 1.1-4 1.1-3.38 1.08-2.88 1.06-2.47 1.03-2.14 1-1.87.97-1.67.94-1.46.93-1.3.9-1.17.88-1.04.86-.95.85-.85.82-.78.83-.7.8-.66.83-.58.8-.55.83-.5.83-.46.83-.4.84-.4.86-.35.87-.32.9-.28.93-.25.96-.22 1-.18 1.05-.14 1.1-.1 1.16-.06 1.23v1.32l.05 1.4.13 1.54.2 1.66.3 1.8.42 2 .56 2.23.75 2.5 1 2.85 1.27 3.26 1.7 3.83 2.24 4.57 3.08 5.62 4.36 7.24 3.64 5.5h-7.2l-1.52-2.3-4.5-7.46-3.18-5.84-2.36-4.8-1.8-4.04-1.36-3.5-1.06-3.07-.82-2.74-.63-2.46-.47-2.25-.34-2.07-.23-1.9-.14-1.78-.06-1.66v-1.58l.07-1.5.12-1.4.17-1.35.22-1.3.26-1.24.32-1.2.35-1.17.4-1.14.45-1.1.5-1.1.52-1.06.58-1.05.63-1.03.7-1.02.74-1.02.8-1 .9-1.02.94-1 1.04-1 1.13-1.02 1.24-1.02 1.36-1.03 1.5-1.04 1.7-1.06 1.86-1.07 2.1-1.1 2.37-1.1 2.7-1.12 3.1-1.14 3.63-1.15 4.25-1.17 5.05-1.16 6.1-1.14 7.52-1.08 4.65-.48z" fill="#ff9e56"/><path d="M1264.6 549.8l-3 .68-1.35-5.85 3-.7zM1258.2 342.77l-3.06.32-.62-5.98 3.06-.32z" fill="#ff9e56"/><use xlink:href="#i" transform="matrix(1,0,0,1,1176.8962405744585,423.16745593672607) translate(0 15.13002364066194)"/><path d="M1253.44 468.3l13.18 18.1 5.76 8.7 3.6 6 2.5 4.54 1.78 3.64 1.34 3 1 2.57.77 2.22.58 1.96.44 1.74.32 1.57.24 1.43.16 1.32.1 1.2.04 1.14v1.06l-.05 1-.07.95-.12.9-.13.86-.18.83-.22.8-.23.77-.27.74-.28.72-.32.7-.34.7-.38.66-.4.66-.43.64-.47.64-.5.63-.54.6-.58.63-.64.6-.68.62-.74.6-.8.62-.9.6-.96.62-1.06.6-1.2.6-1.3.63-1.5.6-1.68.63-1.92.62-1.72.47-1.6-5.78 1.6-.44 1.7-.54 1.44-.54 1.25-.53 1.1-.5.96-.5.84-.5.75-.46.66-.47.6-.45.56-.45.5-.45.44-.43.4-.44.4-.43.34-.43.3-.44.3-.44.28-.44.25-.45.23-.46.2-.48.2-.5.18-.5.17-.52.15-.56.12-.58.1-.6.1-.66.06-.7.03-.75v-.8l-.03-.9-.08-.96-.13-1.07-.2-1.18-.27-1.33-.38-1.5-.52-1.7-.68-2-.9-2.32-1.24-2.78-1.7-3.4-2.35-4.34-3.47-5.76-5.6-8.5-13.1-17.98-19.3-25.98h7.47zm1.78-125.22l-4.54.48-7.26 1.04-5.86 1.1-4.82 1.1-4 1.1-3.38 1.08-2.88 1.06-2.47 1.03-2.14 1-1.87.97-1.67.94-1.46.93-1.3.9-1.17.88-1.04.86-.95.85-.85.82-.78.83-.7.8-.66.83-.58.8-.55.83-.5.83-.46.83-.4.84-.4.86-.35.87-.32.9-.28.93-.25.96-.22 1-.18 1.05-.14 1.1-.1 1.16-.06 1.23v1.32l.05 1.4.13 1.54.2 1.66.3 1.8.42 2 .56 2.23.75 2.5 1 2.85 1.27 3.26 1.7 3.83 2.24 4.57 3.08 5.62 4.36 7.24 3.64 5.5h-7.2l-1.52-2.3-4.5-7.46-3.18-5.84-2.36-4.8-1.8-4.04-1.36-3.5-1.06-3.07-.82-2.74-.63-2.46-.47-2.25-.34-2.07-.23-1.9-.14-1.78-.06-1.66v-1.58l.07-1.5.12-1.4.17-1.35.22-1.3.26-1.24.32-1.2.35-1.17.4-1.14.45-1.1.5-1.1.52-1.06.58-1.05.63-1.03.7-1.02.74-1.02.8-1 .9-1.02.94-1 1.04-1 1.13-1.02 1.24-1.02 1.36-1.03 1.5-1.04 1.7-1.06 1.86-1.07 2.1-1.1 2.37-1.1 2.7-1.12 3.1-1.14 3.63-1.15 4.25-1.17 5.05-1.16 6.1-1.14 7.52-1.08 4.65-.48z" fill="#ff9e56"/><path d="M1264.6 549.8l-3 .68-1.35-5.85 3-.7zM1258.2 342.77l-3.06.32-.62-5.98 3.06-.32z" fill="#ff9e56"/><use xlink:href="#i" transform="matrix(1,0,0,1,1176.8962405744585,423.16745593672607) translate(0 15.13002364066194)"/><path d="M1124.98 664.35l-8.24 12.45-6.06 8.36-5.08 6.42-4.5 5.2-4.1 4.4-3.84 3.75-3.62 3.26-3.47 2.87-3.36 2.54-3.26 2.3-3.2 2.02-3.16 1.83-3.13 1.64-3.13 1.46-3.13 1.3-3.16 1.18-3.18 1.04-3.23.9-3.3.77-3.36.64-3.47.5-3.58.38-2.27.14-.63-9.98 2.07-.13 3.15-.32 3.05-.45 2.96-.56 2.88-.68 2.83-.8 2.78-.9 2.76-1.03 2.75-1.15 2.75-1.3 2.76-1.44 2.8-1.6 2.85-1.82 2.93-2.04 3.02-2.3 3.15-2.6 3.32-2.98 3.53-3.46 3.82-4.07 4.22-4.9 4.8-6.08 5.82-8 8.04-12.16 19.53-31.54h11.75zm98.15-110.7l-.53.15-3.26 1.06-3.22 1.2-3.2 1.34-3.17 1.5-3.18 1.66-3.2 1.85-3.25 2.07-3.3 2.3-3.4 2.58-3.53 2.9-3.7 3.33-3.88 3.8-4.17 4.46-4.58 5.3-5.16 6.54-4.5 6.2h-12l2.08-3.34 6.45-8.9 5.43-6.86 4.85-5.63 4.47-4.75 4.2-4.1 4-3.6 3.83-3.2 3.73-2.82 3.66-2.54 3.58-2.3 3.57-2.05 3.55-1.86 3.56-1.68 3.57-1.5 3.62-1.35 3.66-1.18.74-.2z" fill="#ff9e56"/><path d="M1038.07 729.8l-5.13.1-.2-10 5.12-.1zM1227.8 552.4l-4.98 1.23-2.37-9.7 4.98-1.23z" fill="#ff9e56"/><use xlink:href="#b" transform="matrix(1,0,0,1,1122.7214639068086,601.8878910160834) translate(0 17.02127659574468)"/><path d="M936.2 872.53l1.35 2.12 1.48 2.13 1.64 2.16 1.82 2.2 2 2.24 2.25 2.3 2.5 2.35 2.82 2.43 3.17 2.52 3.6 2.6 4.1 2.74 4.7 2.85 5.42 2.98 6.32 3.14 7.43 3.3 8.82 3.5 10.58 3.68 12.88 3.9 15.9 4.07 15.23 3.24-2.07 9.77-15.42-3.28-16.3-4.2-13.3-4-10.97-3.83-9.2-3.65-7.8-3.48-6.7-3.33-5.8-3.17-5.06-3.07-4.45-2.95-3.93-2.86-3.5-2.77-3.14-2.7-2.82-2.65-2.53-2.6-2.3-2.55-2.07-2.52-1.9-2.5-1.7-2.47-1.58-2.47-1.42-2.46-1.3-2.47-.4-.9h11.3zm11.43-101.73l-.14.7-.54 2.26-.87 3.1-10.66 29.1-2.55 7.8-1.66 5.85-1.15 4.9-.83 4.3-.57 3.82-.37 3.5-.2 3.22-.08 3 .06 2.83.08 1.18h-10.02l-.04-.77-.07-3.24.08-3.43.23-3.63.4-3.9.65-4.26.9-4.68 1.26-5.3 1.76-6.28 2.67-8.16 10.57-28.9.7-2.53.44-1.84.1-.5z" fill="#ff9e56"/><path d="M1053.13 929.6l.35.87.6 4.45-.6 4.45-.2.5-5.28-1.13 2.08-9.78zM948.16 770.15l-10-.26.13-5h10z" fill="#ff9e56"/><use xlink:href="#j" transform="matrix(1,0,0,1,896.2420156288034,846.3478028968996) translate(0 17.02127659574468)"/><path d="M1052.55 934.92c0 8.63-7 15.64-15.64 15.64-8.62 0-15.62-7-15.62-15.64s7-15.64 15.63-15.64c8.65 0 15.65 7 15.65 15.64z" stroke="#ff9e56" stroke-width="3" fill="#ff9e56"/><defs><path d="M220-157c-53 9-28 100-34 157h-49v-107c1-27-5-49-29-50C55-147 81-57 75 0H25l-1-190h47c2 12-1 28 3 38 10-53 101-56 108 0 13-22 24-43 59-42 82 1 51 116 57 194h-49v-107c-1-25-5-48-29-50" id="k"/><path d="M133-34C117-15 103 5 69 4 32 3 11-16 11-54c-1-60 55-63 116-61 1-26-3-47-28-47-18 1-26 9-28 27l-52-2c7-38 36-58 82-57s74 22 75 68l1 82c-1 14 12 18 25 15v27c-30 8-71 5-69-32zm-48 3c29 0 43-24 42-57-32 0-66-3-65 30 0 17 8 27 23 27" id="l"/><path d="M25-224v-37h50v37H25zM25 0v-190h50V0H25" id="m"/><path d="M135-194c87-1 58 113 63 194h-50c-7-57 23-157-34-157-59 0-34 97-39 157H25l-1-190h47c2 12-1 28 3 38 12-26 28-41 61-42" id="n"/><path d="M24 0v-54h51V0H24" id="o"/><path d="M190-63c-7 42-38 67-86 67-59 0-84-38-90-98-12-110 154-137 174-36l-49 2c-2-19-15-32-35-32-30 0-35 28-38 64-6 74 65 87 74 30" id="p"/><g id="a"><use transform="matrix(0.0891778303125821,0,0,0.0891778303125821,0,0)" xlink:href="#k"/><use transform="matrix(0.0891778303125821,0,0,0.0891778303125821,28.53690570002627,0)" xlink:href="#l"/><use transform="matrix(0.0891778303125821,0,0,0.0891778303125821,46.372471762542695,0)" xlink:href="#m"/><use transform="matrix(0.0891778303125821,0,0,0.0891778303125821,55.2902547938009,0)" xlink:href="#n"/><use transform="matrix(0.0891778303125821,0,0,0.0891778303125821,74.82019963225638,0)" xlink:href="#o"/><use transform="matrix(0.0891778303125821,0,0,0.0891778303125821,83.73798266351459,0)" xlink:href="#p"/></g><path fill="#666" d="M133-34C117-15 103 5 69 4 32 3 11-16 11-54c-1-60 55-63 116-61 1-26-3-47-28-47-18 1-26 9-28 27l-52-2c7-38 36-58 82-57s74 22 75 68l1 82c-1 14 12 18 25 15v27c-30 8-71 5-69-32zm-48 3c29 0 43-24 42-57-32 0-66-3-65 30 0 17 8 27 23 27" id="q"/><path fill="#666" d="M88-194c31-1 46 15 58 34l-1-101h50l1 261h-48c-2-10 0-23-3-31C134-8 116 4 84 4 32 4 16-41 15-95c0-56 19-97 73-99zm17 164c33 0 40-30 41-66 1-37-9-64-41-64s-38 30-39 65c0 43 13 65 39 65" id="r"/><path fill="#666" d="M190-63c-7 42-38 67-86 67-59 0-84-38-90-98-12-110 154-137 174-36l-49 2c-2-19-15-32-35-32-30 0-35 28-38 64-6 74 65 87 74 30" id="s"/><path fill="#666" d="M24 0v-54h51V0H24" id="t"/><g id="b"><use transform="matrix(0.0591016548463357,0,0,0.0591016548463357,0,0)" xlink:href="#q"/><use transform="matrix(0.0591016548463357,0,0,0.0591016548463357,11.82033096926714,0)" xlink:href="#r"/><use transform="matrix(0.0591016548463357,0,0,0.0591016548463357,24.763593380614658,0)" xlink:href="#s"/><use transform="matrix(0.0591016548463357,0,0,0.0591016548463357,36.5839243498818,0)" xlink:href="#t"/><use transform="matrix(0.0591016548463357,0,0,0.0591016548463357,42.494089834515364,0)" xlink:href="#s"/></g><path fill="#666" d="M115-3C79 11 28 4 28-45v-112H4v-33h27l15-45h31v45h36v33H77v99c-1 23 16 31 38 25v30" id="u"/><path fill="#666" d="M185-48c-13 30-37 53-82 52C43 2 14-33 14-96s30-98 90-98c62 0 83 45 84 108H66c0 31 8 55 39 56 18 0 30-7 34-22zm-45-69c5-46-57-63-70-21-2 6-4 13-4 21h74" id="v"/><path fill="#666" d="M137-138c1-29-70-34-71-4 15 46 118 7 119 86 1 83-164 76-172 9l43-7c4 19 20 25 44 25 33 8 57-30 24-41C81-84 22-81 20-136c-2-80 154-74 161-7" id="w"/><g id="c"><use transform="matrix(0.0591016548463357,0,0,0.0591016548463357,0,0)" xlink:href="#u"/><use transform="matrix(0.0591016548463357,0,0,0.0591016548463357,7.033096926713948,0)" xlink:href="#v"/><use transform="matrix(0.0591016548463357,0,0,0.0591016548463357,18.85342789598109,0)" xlink:href="#w"/><use transform="matrix(0.0591016548463357,0,0,0.0591016548463357,30.673758865248228,0)" xlink:href="#u"/><use transform="matrix(0.0591016548463357,0,0,0.0591016548463357,37.70685579196218,0)" xlink:href="#t"/><use transform="matrix(0.0591016548463357,0,0,0.0591016548463357,43.61702127659575,0)" xlink:href="#s"/></g><path fill="#666" d="M85 4C-2 5 27-109 22-190h50c7 57-23 150 33 157 60-5 35-97 40-157h50l1 190h-47c-2-12 1-28-3-38-12 25-28 42-61 42" id="x"/><path fill="#666" d="M135-150c-39-12-60 13-60 57V0H25l-1-190h47c2 13-1 29 3 40 6-28 27-53 61-41v41" id="y"/><path fill="#666" d="M114-157C55-157 80-60 75 0H25v-261h50l-1 109c12-26 28-41 61-42 86-1 58 113 63 194h-50c-7-57 23-157-34-157" id="z"/><g id="d"><use transform="matrix(0.04596795376937221,0,0,0.04596795376937221,0,0)" xlink:href="#x"/><use transform="matrix(0.04596795376937221,0,0,0.04596795376937221,10.066981875492514,0)" xlink:href="#q"/><use transform="matrix(0.04596795376937221,0,0,0.04596795376937221,19.260572629366955,0)" xlink:href="#y"/><use transform="matrix(0.04596795376937221,0,0,0.04596795376937221,25.696086157079066,0)" xlink:href="#u"/><use transform="matrix(0.04596795376937221,0,0,0.04596795376937221,31.16627265563436,0)" xlink:href="#t"/><use transform="matrix(0.04596795376937221,0,0,0.04596795376937221,35.76306803257158,0)" xlink:href="#z"/></g><g id="e"><use transform="matrix(0.04596795376937221,0,0,0.04596795376937221,0,0)" xlink:href="#q"/><use transform="matrix(0.04596795376937221,0,0,0.04596795376937221,9.193590753874442,0)" xlink:href="#r"/><use transform="matrix(0.04596795376937221,0,0,0.04596795376937221,19.260572629366955,0)" xlink:href="#s"/><use transform="matrix(0.04596795376937221,0,0,0.04596795376937221,28.454163383241397,0)" xlink:href="#t"/><use transform="matrix(0.04596795376937221,0,0,0.04596795376937221,33.05095876017862,0)" xlink:href="#z"/></g><path fill="#666" d="M110-194c64 0 96 36 96 99 0 64-35 99-97 99-61 0-95-36-95-99 0-62 34-99 96-99zm-1 164c35 0 45-28 45-65 0-40-10-65-43-65-34 0-45 26-45 65 0 36 10 65 43 65" id="A"/><path fill="#666" d="M220-157c-53 9-28 100-34 157h-49v-107c1-27-5-49-29-50C55-147 81-57 75 0H25l-1-190h47c2 12-1 28 3 38 10-53 101-56 108 0 13-22 24-43 59-42 82 1 51 116 57 194h-49v-107c-1-25-5-48-29-50" id="B"/><path fill="#666" d="M135-194c87-1 58 113 63 194h-50c-7-57 23-157-34-157-59 0-34 97-39 157H25l-1-190h47c2 12-1 28 3 38 12-26 28-41 61-42" id="C"/><g id="f"><use transform="matrix(0.04596795376937221,0,0,0.04596795376937221,0,0)" xlink:href="#s"/><use transform="matrix(0.04596795376937221,0,0,0.04596795376937221,9.193590753874442,0)" xlink:href="#A"/><use transform="matrix(0.04596795376937221,0,0,0.04596795376937221,19.260572629366955,0)" xlink:href="#B"/><use transform="matrix(0.04596795376937221,0,0,0.04596795376937221,33.970317835566064,0)" xlink:href="#B"/><use transform="matrix(0.04596795376937221,0,0,0.04596795376937221,48.68006304176517,0)" xlink:href="#A"/><use transform="matrix(0.04596795376937221,0,0,0.04596795376937221,58.74704491725768,0)" xlink:href="#C"/><use transform="matrix(0.04596795376937221,0,0,0.04596795376937221,68.8140267927502,0)" xlink:href="#t"/><use transform="matrix(0.04596795376937221,0,0,0.04596795376937221,73.41082216968742,0)" xlink:href="#z"/></g><g id="g"><use transform="matrix(0.0591016548463357,0,0,0.0591016548463357,0,0)" xlink:href="#s"/><use transform="matrix(0.0591016548463357,0,0,0.0591016548463357,11.82033096926714,0)" xlink:href="#A"/><use transform="matrix(0.0591016548463357,0,0,0.0591016548463357,24.763593380614658,0)" xlink:href="#B"/><use transform="matrix(0.0591016548463357,0,0,0.0591016548463357,43.67612293144208,0)" xlink:href="#B"/><use transform="matrix(0.0591016548463357,0,0,0.0591016548463357,62.5886524822695,0)" xlink:href="#A"/><use transform="matrix(0.0591016548463357,0,0,0.0591016548463357,75.53191489361703,0)" xlink:href="#C"/><use transform="matrix(0.0591016548463357,0,0,0.0591016548463357,88.47517730496455,0)" xlink:href="#t"/><use transform="matrix(0.0591016548463357,0,0,0.0591016548463357,94.38534278959811,0)" xlink:href="#s"/></g><path fill="#666" d="M135-194c53 0 70 44 70 98 0 56-19 98-73 100-31 1-45-17-59-34 3 33 2 69 2 105H25l-1-265h48c2 10 0 23 3 31 11-24 29-35 60-35zM114-30c33 0 39-31 40-66 0-38-9-64-40-64-56 0-55 130 0 130" id="D"/><g id="h"><use transform="matrix(0.0591016548463357,0,0,0.0591016548463357,0,0)" xlink:href="#r"/><use transform="matrix(0.0591016548463357,0,0,0.0591016548463357,12.943262411347519,0)" xlink:href="#w"/><use transform="matrix(0.0591016548463357,0,0,0.0591016548463357,24.763593380614658,0)" xlink:href="#D"/><use transform="matrix(0.0591016548463357,0,0,0.0591016548463357,37.70685579196218,0)" xlink:href="#t"/><use transform="matrix(0.0591016548463357,0,0,0.0591016548463357,43.61702127659575,0)" xlink:href="#s"/></g><g id="i"><use transform="matrix(0.05253480430785396,0,0,0.05253480430785396,0,0)" xlink:href="#s"/><use transform="matrix(0.05253480430785396,0,0,0.05253480430785396,10.506960861570793,0)" xlink:href="#A"/><use transform="matrix(0.05253480430785396,0,0,0.05253480430785396,22.01208300499081,0)" xlink:href="#B"/><use transform="matrix(0.05253480430785396,0,0,0.05253480430785396,38.82322038350408,0)" xlink:href="#B"/><use transform="matrix(0.05253480430785396,0,0,0.05253480430785396,55.634357762017345,0)" xlink:href="#A"/><use transform="matrix(0.05253480430785396,0,0,0.05253480430785396,67.13947990543736,0)" xlink:href="#C"/><use transform="matrix(0.05253480430785396,0,0,0.05253480430785396,78.64460204885737,0)" xlink:href="#t"/><use transform="matrix(0.05253480430785396,0,0,0.05253480430785396,83.89808247964277,0)" xlink:href="#z"/></g><g id="j"><use transform="matrix(0.0591016548463357,0,0,0.0591016548463357,0,0)" xlink:href="#x"/><use transform="matrix(0.0591016548463357,0,0,0.0591016548463357,12.943262411347519,0)" xlink:href="#q"/><use transform="matrix(0.0591016548463357,0,0,0.0591016548463357,24.763593380614658,0)" xlink:href="#y"/><use transform="matrix(0.0591016548463357,0,0,0.0591016548463357,33.03782505910166,0)" xlink:href="#u"/><use transform="matrix(0.0591016548463357,0,0,0.0591016548463357,40.0709219858156,0)" xlink:href="#t"/><use transform="matrix(0.0591016548463357,0,0,0.0591016548463357,45.98108747044917,0)" xlink:href="#s"/></g></defs></g></svg>